<svg xmlns="http://www.w3.org/2000/svg" width="24" height="24" viewBox="0 0 24 24" fill="currentColor">
  <path d="M12 0C8.74 0 8.333.015 7.053.072 5.775.132 4.905.333 4.117.6c-.588.147-1.079.355-1.556.832-.477.477-.685.968-.832 1.556-.266.788-.467 1.658-.527 2.936C.038 8.333.024 8.74 0 12s.015 3.667.072 4.947c.06 1.277.261 2.148.527 2.936.147.588.355 1.079.832 1.556.477.477.968.685 1.556.832.788.266 1.658.467 2.936.527C8.333 23.962 8.74 23.976 12 23.976s3.667-.015 4.947-.072c1.277-.06 2.148-.261 2.936-.527.588-.147 1.079-.355 1.556-.832.477-.477.685-.968.832-1.556.266-.788.467-1.658.527-2.936.048-1.28.061-1.689.061-4.947 0-3.259-.013-3.667-.061-4.947-.06-1.277-.261-2.148-.527-2.936-.147-.588-.355-1.079-.832-1.556-.477-.477-.968-.685-1.556-.832-.788-.266-1.658-.467-2.936-.527C15.667.048 15.259.036 12 .036zm0 2.16c3.159 0 3.534.011 4.779.069 1.154.053 1.77.24 2.185.399.549.213.942.478 1.354.89.412.412.677.805.89 1.354.159.415.346 1.031.399 2.185.058 1.245.069 1.62.069 4.779 0 3.159-.011 3.534-.069 4.779-.053 1.154-.24 1.77-.399 2.185-.213.549-.478.942-.89 1.354-.412.412-.805.677-1.354.89-.415.159-1.031.346-2.185.399-1.245.058-1.62.069-4.779.069-3.159 0-3.534-.011-4.779-.069-1.154-.053-1.77-.24-2.185-.399-.549-.213-.942-.478-1.354-.89-.412-.412-.677-.805-.89-1.354-.159-.415-.346-1.031-.399-2.185-.058-1.245-.069-1.62-.069-4.779 0-3.159.011-3.534.069-4.779.053-1.154.24-1.77.399-2.185.213-.549.478-.942.89-1.354.412-.412.805-.677 1.354-.89.415-.159 1.031-.346 2.185-.399 1.245-.058 1.62-.069 4.779-.069zM5.838 12a6.162 6.162 0 1 1 12.324 0 6.162 6.162 0 0 1-12.324 0zM12 16a4 4 0 1 1 0-8 4 4 0 0 1 0 8zm4.965-10.322a1.44 1.44 0 1 1 2.881.001 1.44 1.44 0 0 1-2.881-.001z"/>
</svg>
