<svg xmlns="http://www.w3.org/2000/svg" width="24" height="24" viewBox="0 0 24 24" fill="currentColor">
  <path d="M20.447 20.452h-3.554v-5.569c0-1.328-.475-2.236-1.986-2.236-1.081 0-1.722.722-2.006 1.419-.103.249-.129.597-.129.946v5.44h-3.554s.05-8.81 0-9.728h3.554v1.375c.428-.659 1.19-1.599 2.894-1.599 2.113 0 3.695 1.381 3.695 4.352v5.6zM5.337 8.855c-1.144 0-1.915-.758-1.915-1.706 0-.955.768-1.703 1.959-1.703 1.188 0 1.914.748 1.939 1.703 0 .948-.751 1.706-1.983 1.706zm1.946 11.597H3.391V9.724h3.892v10.728zM22.225 0H1.771C.792 0 0 .774 0 1.729v20.542C0 23.227.792 24 1.771 24h20.451C23.2 24 24 23.227 24 22.271V1.729C24 .774 23.2 0 22.225 0z"/>
</svg>
